<svg version="1.1" xmlns="http://www.w3.org/2000/svg" viewBox="0 0 3425.3389839359775 857.0833333333333" width="3425.3389839359775" height="857.0833333333333">
  <!-- svg-source:excalidraw -->
  
  <defs>
    <style class="style-fonts">
      @font-face {
        font-family: "Virgil";
        src: url("https://excalidraw.com/Virgil.woff2");
      }
      @font-face {
        font-family: "Cascadia";
        src: url("https://excalidraw.com/Cascadia.woff2");
      }
      @font-face {
        font-family: "Assistant";
        src: url("https://excalidraw.com/Assistant-Regular.woff2");
      }
    </style>
    
  </defs>
  <rect x="0" y="0" width="3425.3389839359775" height="857.0833333333333" fill="#ffffff"></rect><g stroke-linecap="round" transform="translate(2485.5612061581946 72.47619047619122) rotate(0 121.66666666666652 214.37499999999997)"><path d="M0 0 C92.26 0.02, 187.36 2.07, 243.33 0 M0 0 C95.02 0.24, 188.64 0.49, 243.33 0 M243.33 0 C244.61 163.93, 244.12 329.58, 243.33 428.75 M243.33 0 C242.85 96.79, 241.99 193.63, 243.33 428.75 M243.33 428.75 C180.06 430.6, 118.75 428.85, 0 428.75 M243.33 428.75 C166.3 426.46, 88.91 426.63, 0 428.75 M0 428.75 C0.19 295.21, 1.67 161.45, 0 0 M0 428.75 C0.63 337.84, 1.39 246.21, 0 0" stroke="#1e1e1e" stroke-width="2" fill="none"></path></g><g transform="translate(2572.3279018165604 77.47619047619122) rotate(0 34.89997100830078 12.5)"><text x="34.89997100830078" y="17.52" font-family="Virgil, Segoe UI Emoji" font-size="20px" fill="#1e1e1e" text-anchor="middle" style="white-space: pre;" direction="ltr" dominant-baseline="alphabetic">Boards</text></g><g stroke-linecap="round"><g transform="translate(19.403965099462766 509.5333582020371) rotate(0 30.233734130859375 -0.1092987060546875)"><path d="M0.99 -0.7 C11.22 -0.68, 50.86 0.79, 60.72 0.7 M0.05 1.55 C10.2 1.19, 50.04 -0.61, 59.9 -0.95" stroke="#000000" stroke-width="1" fill="none"></path></g></g><mask></mask><g stroke-linecap="round"><g transform="translate(18.43585596860339 518.3770319080918) rotate(0 30.233734130859375 -0.1092987060546875)"><path d="M0.25 0.91 C10.11 0.82, 50.27 -1.04, 60.14 -1.24 M-1.08 0.35 C8.51 0.43, 48.53 -0.34, 59.02 -0.24" stroke="#000000" stroke-width="1" fill="none"></path></g></g><mask></mask><g stroke-linecap="round"><g transform="translate(19.91991053403308 528.9551950550645) rotate(0 30.233734130859375 -0.1092987060546875)"><path d="M-0.33 -1.03 C9.55 -1.23, 49.4 -0.54, 59.49 -0.32 M1.7 1.05 C11.92 0.96, 52.09 1.63, 61.69 1.16" stroke="#000000" stroke-width="1" fill="none"></path></g></g><mask></mask><g stroke-linecap="round"><g transform="translate(18.951801403173704 537.7988687611191) rotate(0 30.233734130859375 -0.1092987060546875)"><path d="M-0.97 -0.11 C9.11 0.11, 50.01 0.43, 60.2 0.29 M0.71 -1.21 C10.65 -1.26, 49.36 -1.76, 59.12 -1.57" stroke="#000000" stroke-width="1" fill="none"></path></g></g><mask></mask><g stroke-linecap="round"><g transform="translate(19.533397777685423 546.6917253590195) rotate(0 30.233734130859375 -0.1092987060546875)"><path d="M-0.26 0.51 C9.93 0.36, 50.03 -0.87, 60.19 -0.98 M1.8 -0.27 C11.89 -0.27, 49.39 -0.09, 59.09 0.16" stroke="#000000" stroke-width="1" fill="none"></path></g></g><mask></mask><g stroke-linecap="round"><g transform="translate(18.565288646826048 555.5353990650742) rotate(0 30.233734130859375 -0.1092987060546875)"><path d="M-0.28 -0.76 C9.87 -0.86, 50.45 -0.17, 60.66 -0.1 M1.77 1.46 C11.81 1.53, 50.03 1.58, 59.82 1.49" stroke="#000000" stroke-width="1" fill="none"></path></g></g><mask></mask><g stroke-linecap="round"><g transform="translate(20.049343212255735 566.1135622120469) rotate(0 30.233734130859375 -0.1092987060546875)"><path d="M0.2 0.11 C10.41 0.18, 50.91 -0.15, 61 -0.34 M-1.16 -0.87 C8.97 -0.54, 50.13 1, 60.34 1.14" stroke="#000000" stroke-width="1" fill="none"></path></g></g><mask></mask><g stroke-linecap="round"><g transform="translate(19.08123408139636 574.9572359181016) rotate(0 30.233734130859375 -0.1092987060546875)"><path d="M0.53 -0.12 C10.62 -0.3, 50.56 -0.9, 60.72 -0.99 M-0.64 -1.23 C9.29 -1.29, 49.58 -0.13, 59.91 0.14" stroke="#000000" stroke-width="1" fill="none"></path></g></g><mask></mask><g stroke-linecap="round"><g transform="translate(11.069590099463312 497.8958582020372) rotate(0 0.593170166015625 44.77740478515625)"><path d="M0.26 -0.77 C0.54 14.1, 2.22 74.09, 2.26 89.1 M-1.07 1.44 C-0.89 16.48, 1.19 75.57, 1.87 90.39" stroke="#000000" stroke-width="1" fill="none"></path></g></g><mask></mask><g stroke-linecap="round"><g transform="translate(12.752359874853937 586.696608934459) rotate(0 38.20728302001953 0.09243011474609375)"><path d="M1.07 -0.46 C13.65 -0.35, 63.17 -0.23, 75.71 -0.13 M0.17 -1.74 C13.12 -1.39, 65.5 0.71, 78.06 1.24" stroke="#000000" stroke-width="1" fill="none"></path></g></g><mask></mask><g stroke-linecap="round"><g transform="translate(90.08521509946331 587.9114832020372) rotate(0 -0.12176513671875 -41.72425842285156)"><path d="M-0.7 -0.31 C-0.94 -14.15, -0.3 -69.44, -0.34 -83.48 M1.13 -1.53 C0.64 -15.12, -1.42 -68.25, -1.34 -81.95" stroke="#000000" stroke-width="1" fill="none"></path></g></g><mask></mask><g stroke-linecap="round"><g transform="translate(89.83521509946331 504.4583582020372) rotate(0 -5.3465576171875 -4.78912353515625)"><path d="M-0.04 -0.01 C-1.83 -1.67, -9.19 -8.45, -11.01 -10.06 M-0.73 -0.49 C-2.31 -2.08, -8.16 -8.17, -9.94 -9.61" stroke="#000000" stroke-width="1" fill="none"></path></g></g><mask></mask><g stroke-linecap="round"><g transform="translate(81.16626978696331 494.86730900770124) rotate(0 -34.70611572265625 1.6865158081054688)"><path d="M-0.7 -1.06 C-12.35 -0.54, -58.56 2.42, -70.01 3.11 M1.14 1 C-10.11 1.71, -55.73 3.97, -67.61 4.5" stroke="#000000" stroke-width="1" fill="none"></path></g></g><mask></mask><g stroke-linecap="round" transform="translate(204.7255869195758 491.8214285714298) rotate(0 75.5 46.5)"><path d="M0 0 C54.45 2.64, 112.06 2.77, 151 0 M0 0 C37.38 0.75, 74.9 -0.04, 151 0 M151 0 C151.85 27.54, 150.37 54.45, 151 93 M151 0 C151.4 23.58, 151.69 48.11, 151 93 M151 93 C100.97 92.15, 49.32 92.64, 0 93 M151 93 C120.38 90.99, 90.45 91.52, 0 93 M0 93 C-1.04 70.58, 0.25 47.72, 0 0 M0 93 C0.72 71.22, 0.05 48.09, 0 0" stroke="#1e1e1e" stroke-width="2" fill="none"></path></g><g transform="translate(241.46562293031798 525.8214285714298) rotate(0 38.75996398925781 12.5)"><text x="38.75996398925781" y="17.52" font-family="Virgil, Segoe UI Emoji" font-size="20px" fill="#1e1e1e" text-anchor="middle" style="white-space: pre;" direction="ltr" dominant-baseline="alphabetic">Program</text></g><g stroke-linecap="round"><g transform="translate(94.72558691957579 545.4880952380965) rotate(0 48 -0.4114589094126586)"><path d="M0 0 C22.07 -2.26, 45.44 -0.18, 96 -0.82 M0 0 C23.03 0.28, 46.2 -0.46, 96 -0.82" stroke="#1e1e1e" stroke-width="2" fill="none"></path></g><g transform="translate(94.72558691957579 545.4880952380965) rotate(0 48 -0.4114589094126586)"><path d="M96.38 -2.45 L83.79 6.76 L81.71 -8.59 L96.04 -2.54" stroke="none" stroke-width="0" fill="#1e1e1e" fill-rule="evenodd"></path><path d="M96 -0.82 C92.18 -0.11, 89.32 3.14, 82.47 5.65 M96 -0.82 C92.31 1.27, 88.75 2.45, 82.47 5.65 M82.47 5.65 C82.14 2.42, 82.98 -2.35, 82.34 -7.02 M82.47 5.65 C83.06 1.66, 81.94 -3.54, 82.34 -7.02 M82.34 -7.02 C88.2 -5.4, 94.1 -1.33, 96 -0.82 M82.34 -7.02 C87.01 -5.22, 90.05 -3.87, 96 -0.82 M96 -0.82 C96 -0.82, 96 -0.82, 96 -0.82 M96 -0.82 C96 -0.82, 96 -0.82, 96 -0.82" stroke="#1e1e1e" stroke-width="2" fill="none"></path></g></g><mask></mask><g stroke-linecap="round" transform="translate(1395.2798807136246 398.07142857143003) rotate(0 90.66666666666652 46.5)"><path d="M0 0 C46.99 -1.89, 98.87 0.36, 181.33 0 M0 0 C63.83 -1.92, 128.66 -1.6, 181.33 0 M181.33 0 C180.35 36.24, 181.47 71.55, 181.33 93 M181.33 0 C180.37 29.8, 180.62 59.69, 181.33 93 M181.33 93 C131.03 96.24, 81.3 92.36, 0 93 M181.33 93 C138.52 93.94, 95.32 94.5, 0 93 M0 93 C-0.74 57.73, -1.09 20.16, 0 0 M0 93 C0.5 60.22, 0 29.36, 0 0" stroke="#1e1e1e" stroke-width="2" fill="none"></path></g><g transform="translate(1404.3366078050958 419.57142857143003) rotate(0 81.60993957519531 25)"><text x="81.60993957519531" y="17.52" font-family="Virgil, Segoe UI Emoji" font-size="20px" fill="#1e1e1e" text-anchor="middle" style="white-space: pre;" direction="ltr" dominant-baseline="alphabetic">Connect</text><text x="81.60993957519531" y="42.519999999999996" font-family="Virgil, Segoe UI Emoji" font-size="20px" fill="#1e1e1e" text-anchor="middle" style="white-space: pre;" direction="ltr" dominant-baseline="alphabetic">Command Handler</text></g><g stroke-linecap="round" transform="translate(1392.6132140469576 509.96031746031895) rotate(0 91.66666666666652 46.5)"><path d="M0 0 C44.23 0.3, 89.72 -1.13, 183.33 0 M0 0 C61.47 0.7, 122.73 0.08, 183.33 0 M183.33 0 C185.23 34.16, 184.02 67.94, 183.33 93 M183.33 0 C183.17 25.44, 182.92 50.43, 183.33 93 M183.33 93 C139.88 92.25, 102 93.4, 0 93 M183.33 93 C119.69 93.61, 56.58 93.65, 0 93 M0 93 C-1.27 59.73, -1.38 26.43, 0 0 M0 93 C0.66 73.94, 0.87 54.91, 0 0" stroke="#1e1e1e" stroke-width="2" fill="none"></path></g><g transform="translate(1402.6699411384288 531.460317460319) rotate(0 81.60993957519531 25)"><text x="81.60993957519531" y="17.52" font-family="Virgil, Segoe UI Emoji" font-size="20px" fill="#1e1e1e" text-anchor="middle" style="white-space: pre;" direction="ltr" dominant-baseline="alphabetic">Disconnect </text><text x="81.60993957519531" y="42.519999999999996" font-family="Virgil, Segoe UI Emoji" font-size="20px" fill="#1e1e1e" text-anchor="middle" style="white-space: pre;" direction="ltr" dominant-baseline="alphabetic">Command Handler</text></g><g stroke-linecap="round" transform="translate(1392.6132140469576 620.8492063492079) rotate(0 93.33333333333348 46.5)"><path d="M0 0 C55.57 0.78, 107.78 0.03, 186.67 0 M0 0 C40.07 0.68, 79.21 0.92, 186.67 0 M186.67 0 C184.24 27.5, 186.31 59.19, 186.67 93 M186.67 0 C185.99 35.03, 186.23 71.79, 186.67 93 M186.67 93 C142.84 94.24, 93.3 92.38, 0 93 M186.67 93 C143.58 90.44, 101.56 91.11, 0 93 M0 93 C1.31 70.81, 0.57 51, 0 0 M0 93 C0 61.41, -1.45 30.35, 0 0" stroke="#1e1e1e" stroke-width="2" fill="none"></path></g><g transform="translate(1403.146612993084 642.3492063492079) rotate(0 82.79993438720703 25)"><text x="82.79993438720703" y="17.52" font-family="Virgil, Segoe UI Emoji" font-size="20px" fill="#1e1e1e" text-anchor="middle" style="white-space: pre;" direction="ltr" dominant-baseline="alphabetic">Userinfo Change </text><text x="82.79993438720703" y="42.519999999999996" font-family="Virgil, Segoe UI Emoji" font-size="20px" fill="#1e1e1e" text-anchor="middle" style="white-space: pre;" direction="ltr" dominant-baseline="alphabetic">Command Handler</text></g><g stroke-linecap="round" transform="translate(1392.6132140469576 731.7380952380968) rotate(0 93.33333333333348 46.5)"><path d="M0 0 C58.16 -2.44, 112.85 -2.15, 186.67 0 M0 0 C38.58 -0.56, 75.73 0.39, 186.67 0 M186.67 0 C186.84 34.42, 185.68 65.78, 186.67 93 M186.67 0 C185.66 22.15, 186.75 45.02, 186.67 93 M186.67 93 C124.03 92.42, 63.66 92.17, 0 93 M186.67 93 C115.66 94.59, 42.23 94.4, 0 93 M0 93 C0.94 62.4, -2.43 29.65, 0 0 M0 93 C0.48 64.43, 0.89 36.62, 0 0" stroke="#1e1e1e" stroke-width="2" fill="none"></path></g><g transform="translate(1404.3366078050958 753.2380952380968) rotate(0 81.60993957519531 25)"><text x="81.60993957519531" y="17.52" font-family="Virgil, Segoe UI Emoji" font-size="20px" fill="#1e1e1e" text-anchor="middle" style="white-space: pre;" direction="ltr" dominant-baseline="alphabetic">Client Killed</text><text x="81.60993957519531" y="42.519999999999996" font-family="Virgil, Segoe UI Emoji" font-size="20px" fill="#1e1e1e" text-anchor="middle" style="white-space: pre;" direction="ltr" dominant-baseline="alphabetic">Command Handler</text></g><g stroke-linecap="round" transform="translate(428.1127934597878 493.73809523809655) rotate(0 75.5 46.5)"><path d="M0 0 C58.6 -0.22, 113.23 -1.27, 151 0 M0 0 C48.69 -0.95, 98.55 0.7, 151 0 M151 0 C149.88 37.72, 153.15 73.1, 151 93 M151 0 C151.12 21.45, 150.4 43.55, 151 93 M151 93 C116.94 93.09, 84.92 94.63, 0 93 M151 93 C93.26 93.08, 37.01 93.93, 0 93 M0 93 C-0.26 65.85, 2.8 38.13, 0 0 M0 93 C1.12 69.33, -0.52 47.77, 0 0" stroke="#1e1e1e" stroke-width="2" fill="none"></path></g><g transform="translate(447.6928334378151 527.7380952380965) rotate(0 55.919960021972656 12.5)"><text x="55.919960021972656" y="17.52" font-family="Virgil, Segoe UI Emoji" font-size="20px" fill="#1e1e1e" text-anchor="middle" style="white-space: pre;" direction="ltr" dominant-baseline="alphabetic">Log Reader</text></g><g stroke-linecap="round" transform="translate(699.6961267931213 395.4568452380968) rotate(0 97.12500000000011 46.5)"><path d="M0 0 C72.05 0.88, 148.27 2.83, 194.25 0 M0 0 C72.26 -0.08, 143.77 -0.1, 194.25 0 M194.25 0 C193.48 19.39, 194.94 40.02, 194.25 93 M194.25 0 C194.46 31.26, 193.16 64.26, 194.25 93 M194.25 93 C118.2 94.33, 38.91 95.98, 0 93 M194.25 93 C132.46 92.78, 68.61 91.98, 0 93 M0 93 C0.78 72.42, 0.14 54.21, 0 0 M0 93 C-0.13 61.96, 0.07 31.6, 0 0" stroke="#1e1e1e" stroke-width="2" fill="none"></path></g><g transform="translate(727.311185692047 416.9568452380968) rotate(0 69.50994110107433 25)"><text x="69.50994110107422" y="17.52" font-family="Virgil, Segoe UI Emoji" font-size="20px" fill="#1e1e1e" text-anchor="middle" style="white-space: pre;" direction="ltr" dominant-baseline="alphabetic">Client Connect</text><text x="69.50994110107422" y="42.519999999999996" font-family="Virgil, Segoe UI Emoji" font-size="20px" fill="#1e1e1e" text-anchor="middle" style="white-space: pre;" direction="ltr" dominant-baseline="alphabetic">Parser</text></g><g stroke-linecap="round" transform="translate(704.9461267931208 505.37003968254123) rotate(0 94.99999999999989 46.5)"><path d="M0 0 C54.7 -0.33, 106.36 -0.44, 190 0 M0 0 C49.66 1.48, 100.43 -0.05, 190 0 M190 0 C190.89 23.09, 190.63 50.98, 190 93 M190 0 C190.6 19.28, 190.33 40.31, 190 93 M190 93 C133.62 92.98, 75.2 95.82, 0 93 M190 93 C114.62 92.68, 40.88 93.37, 0 93 M0 93 C0.75 67.77, -1.49 42.26, 0 0 M0 93 C-0.39 68.15, 0.22 44.3, 0 0" stroke="#1e1e1e" stroke-width="2" fill="none"></path></g><g transform="translate(711.4362009508357 526.8700396825412) rotate(0 88.50992584228504 25)"><text x="88.50992584228516" y="17.52" font-family="Virgil, Segoe UI Emoji" font-size="20px" fill="#1e1e1e" text-anchor="middle" style="white-space: pre;" direction="ltr" dominant-baseline="alphabetic">Client Disconnect </text><text x="88.50992584228516" y="42.519999999999996" font-family="Virgil, Segoe UI Emoji" font-size="20px" fill="#1e1e1e" text-anchor="middle" style="white-space: pre;" direction="ltr" dominant-baseline="alphabetic">Parser</text></g><g stroke-linecap="round" transform="translate(704.9461267931213 617.7832341269857) rotate(0 94.99999999999989 46.5)"><path d="M0 0 C67.24 -0.43, 135.11 -2.67, 190 0 M0 0 C71.53 1.41, 143.69 1.88, 190 0 M190 0 C188.58 20.16, 190.36 43.8, 190 93 M190 0 C190.64 21.34, 191.46 44.22, 190 93 M190 93 C149.75 92.65, 106.05 92.51, 0 93 M190 93 C143.06 93.08, 97.31 93.55, 0 93 M0 93 C-0.07 65.13, 0.44 36.3, 0 0 M0 93 C-0.94 73.35, -0.9 53.28, 0 0" stroke="#1e1e1e" stroke-width="2" fill="none"></path></g><g transform="translate(723.2961939317931 639.2832341269857) rotate(0 76.64993286132824 25)"><text x="76.64993286132812" y="17.52" font-family="Virgil, Segoe UI Emoji" font-size="20px" fill="#1e1e1e" text-anchor="middle" style="white-space: pre;" direction="ltr" dominant-baseline="alphabetic">Client Userinfo </text><text x="76.64993286132812" y="42.519999999999996" font-family="Virgil, Segoe UI Emoji" font-size="20px" fill="#1e1e1e" text-anchor="middle" style="white-space: pre;" direction="ltr" dominant-baseline="alphabetic">Change Parser</text></g><g stroke-linecap="round" transform="translate(707.4461267931213 728.9464285714301) rotate(0 93.74999999999989 46.5)"><path d="M0 0 C63.05 0.44, 121.46 0.86, 187.5 0 M0 0 C55.18 -0.53, 112.76 -1.71, 187.5 0 M187.5 0 C186.26 25.67, 188.49 48.54, 187.5 93 M187.5 0 C187.47 21.12, 188.89 44.35, 187.5 93 M187.5 93 C144.76 91.27, 104.47 90.84, 0 93 M187.5 93 C134.68 92.72, 81.71 93.13, 0 93 M0 93 C-1.56 64.92, -1.28 34.31, 0 0 M0 93 C0.04 62.91, 0.97 32.09, 0 0" stroke="#1e1e1e" stroke-width="2" fill="none"></path></g><g transform="translate(755.566167686676 750.4464285714301) rotate(0 45.629959106445426 25)"><text x="45.62995910644531" y="17.52" font-family="Virgil, Segoe UI Emoji" font-size="20px" fill="#1e1e1e" text-anchor="middle" style="white-space: pre;" direction="ltr" dominant-baseline="alphabetic">Client Kill</text><text x="45.62995910644531" y="42.519999999999996" font-family="Virgil, Segoe UI Emoji" font-size="20px" fill="#1e1e1e" text-anchor="middle" style="white-space: pre;" direction="ltr" dominant-baseline="alphabetic">Parser</text></g><g stroke-linecap="round"><g transform="translate(593.9461267931217 522.5581846853178) rotate(0 44.624999999999886 -41.01022250908096)"><path d="M0 0 C20.21 -21, 40.2 -39.84, 89.25 -82.02 M0 0 C22.69 -19.32, 45.23 -39.25, 89.25 -82.02" stroke="#1e1e1e" stroke-width="2" fill="none"></path></g><g transform="translate(593.9461267931217 522.5581846853178) rotate(0 44.624999999999886 -41.01022250908096)"><path d="M88.06 -81.86 L82.62 -67.23 L75.51 -75.27 L87.91 -83.72" stroke="none" stroke-width="0" fill="#1e1e1e" fill-rule="evenodd"></path><path d="M89.25 -82.02 C87.17 -79.71, 85.36 -76.32, 83.81 -68.04 M89.25 -82.02 C87.58 -78.22, 86.49 -74.4, 83.81 -68.04 M83.81 -68.04 C80.54 -70.43, 79.65 -73.88, 75.05 -77.2 M83.81 -68.04 C80.8 -70.1, 79.28 -73.14, 75.05 -77.2 M75.05 -77.2 C80.82 -77.58, 85.42 -81.59, 89.25 -82.02 M75.05 -77.2 C80.15 -79.01, 83.11 -79.74, 89.25 -82.02 M89.25 -82.02 C89.25 -82.02, 89.25 -82.02, 89.25 -82.02 M89.25 -82.02 C89.25 -82.02, 89.25 -82.02, 89.25 -82.02" stroke="#1e1e1e" stroke-width="2" fill="none"></path></g></g><mask></mask><g stroke-linecap="round"><g transform="translate(592.2794601264548 543.1740508772427) rotate(0 49.58333333333292 -0.11296152532071346)"><path d="M0 0 C38.32 1.04, 80.27 0.12, 99.17 -0.23 M0 0 C23.08 -0.18, 46.23 0.85, 99.17 -0.23" stroke="#1e1e1e" stroke-width="2" fill="none"></path></g><g transform="translate(592.2794601264548 543.1740508772427) rotate(0 49.58333333333292 -0.11296152532071346)"><path d="M98.73 -0.87 L83.79 8.18 L85.87 -7.56 L97.86 -1.6" stroke="none" stroke-width="0" fill="#1e1e1e" fill-rule="evenodd"></path><path d="M99.17 -0.23 C92.9 2.61, 89.31 4.58, 85.65 6.28 M99.17 -0.23 C95.67 0.91, 92.19 3.27, 85.65 6.28 M85.65 6.28 C86.24 3.84, 85.45 0.34, 85.5 -6.4 M85.65 6.28 C85.95 2.09, 86.06 -1.9, 85.5 -6.4 M85.5 -6.4 C88.99 -5.57, 92.4 -3.53, 99.17 -0.23 M85.5 -6.4 C89.98 -3.82, 95.12 -2.55, 99.17 -0.23 M99.17 -0.23 C99.17 -0.23, 99.17 -0.23, 99.17 -0.23 M99.17 -0.23 C99.17 -0.23, 99.17 -0.23, 99.17 -0.23" stroke="#1e1e1e" stroke-width="2" fill="none"></path></g></g><mask></mask><g stroke-linecap="round"><g transform="translate(593.5216941431443 561.4649047712657) rotate(0 46.96221632498839 36.00035372721993)"><path d="M0 0 C22.07 18.2, 45.06 35.37, 93.92 72 M0 0 C22.99 16.61, 46.38 33.26, 93.92 72" stroke="#1e1e1e" stroke-width="2" fill="none"></path></g><g transform="translate(593.5216941431443 561.4649047712657) rotate(0 46.96221632498839 36.00035372721993)"><path d="M95.24 70.55 L79.4 69.52 L86.75 59.42 L95.29 70.19" stroke="none" stroke-width="0" fill="#1e1e1e" fill-rule="evenodd"></path><path d="M93.92 72 C90.11 71.77, 87.45 71.17, 79.35 68.47 M93.92 72 C90.31 71.24, 87.22 69.77, 79.35 68.47 M79.35 68.47 C83.38 64.81, 84.57 61.55, 87.26 58.56 M79.35 68.47 C81.19 66.78, 83.15 63.99, 87.26 58.56 M87.26 58.56 C90.2 62.14, 92.47 68.26, 93.92 72 M87.26 58.56 C90.13 62.54, 91.73 67.48, 93.92 72 M93.92 72 C93.92 72, 93.92 72, 93.92 72 M93.92 72 C93.92 72, 93.92 72, 93.92 72" stroke="#1e1e1e" stroke-width="2" fill="none"></path></g></g><mask></mask><g stroke-linecap="round"><g transform="translate(589.3059964035099 573.5398035677218) rotate(0 52.82006519480558 85.4750395460083)"><path d="M0 0 C22.06 40.12, 44.79 76.66, 105.64 170.95 M0 0 C23.66 38.7, 47.77 75.41, 105.64 170.95" stroke="#1e1e1e" stroke-width="2" fill="none"></path></g><g transform="translate(589.3059964035099 573.5398035677218) rotate(0 52.82006519480558 85.4750395460083)"><path d="M104.65 172.46 L94.94 162.5 L104.94 156.11 L104.14 170.49" stroke="none" stroke-width="0" fill="#1e1e1e" fill-rule="evenodd"></path><path d="M105.64 170.95 C102.46 170.45, 99.17 167.55, 93.14 162.66 M105.64 170.95 C102.29 169.8, 99.98 166.79, 93.14 162.66 M93.14 162.66 C95.93 159.61, 99.72 158.79, 103.96 156.04 M93.14 162.66 C95.47 161.34, 98.04 160.18, 103.96 156.04 M103.96 156.04 C104 160.59, 105.45 168.65, 105.64 170.95 M103.96 156.04 C103.54 160.09, 104.49 162.32, 105.64 170.95 M105.64 170.95 C105.64 170.95, 105.64 170.95, 105.64 170.95 M105.64 170.95 C105.64 170.95, 105.64 170.95, 105.64 170.95" stroke="#1e1e1e" stroke-width="2" fill="none"></path></g></g><mask></mask><g stroke-linecap="round"><g transform="translate(360.6127934597878 534.1857220688565) rotate(0 29.000000000000114 0.7637272389949317)"><path d="M0 0 C21.16 -0.82, 46.14 -0.9, 58 1.53 M0 0 C17.94 0.47, 36.02 0.58, 58 1.53" stroke="#1e1e1e" stroke-width="2" fill="none"></path></g><g transform="translate(360.6127934597878 534.1857220688565) rotate(0 29.000000000000114 0.7637272389949317)"><path d="M56.23 2.65 L46.17 8.52 L45.28 -3.59 L56.52 1.39" stroke="none" stroke-width="0" fill="#1e1e1e" fill-rule="evenodd"></path><path d="M58 1.53 C51.8 2.95, 48.5 4.7, 44.19 7.39 M58 1.53 C53.35 2.86, 48.82 4.43, 44.19 7.39 M44.19 7.39 C44.11 2.42, 44.24 -0.55, 44.64 -5.28 M44.19 7.39 C44.15 3.22, 44.98 -1.16, 44.64 -5.28 M44.64 -5.28 C49.18 -3.52, 52.42 0.59, 58 1.53 M44.64 -5.28 C47.93 -2.96, 51.5 -2.73, 58 1.53 M58 1.53 C58 1.53, 58 1.53, 58 1.53 M58 1.53 C58 1.53, 58 1.53, 58 1.53" stroke="#1e1e1e" stroke-width="2" fill="none"></path></g></g><mask></mask><g stroke-linecap="round" transform="translate(698.4461267931213 284.2936507936523) rotate(0 97.75000000000011 46.5)"><path d="M0 0 C50.14 -1.17, 98.5 1.35, 195.5 0 M0 0 C68.48 -0.22, 136.76 -1.58, 195.5 0 M195.5 0 C195.86 35.63, 194.1 72.61, 195.5 93 M195.5 0 C194.44 30.32, 194.76 61.4, 195.5 93 M195.5 93 C149.2 95.76, 99.95 94.78, 0 93 M195.5 93 C148.37 94.05, 102.4 95.72, 0 93 M0 93 C1.2 68.09, 1.32 39.5, 0 0 M0 93 C0.07 68.03, -0.02 44.56, 0 0" stroke="#1e1e1e" stroke-width="2" fill="none"></path></g><g transform="translate(746.8761576158752 305.7936507936523) rotate(0 49.31996917724621 25)"><text x="49.319969177246094" y="17.52" font-family="Virgil, Segoe UI Emoji" font-size="20px" fill="#1e1e1e" text-anchor="middle" style="white-space: pre;" direction="ltr" dominant-baseline="alphabetic">Init Game</text><text x="49.319969177246094" y="42.519999999999996" font-family="Virgil, Segoe UI Emoji" font-size="20px" fill="#1e1e1e" text-anchor="middle" style="white-space: pre;" direction="ltr" dominant-baseline="alphabetic">Parser</text></g><g stroke-linecap="round" transform="translate(1393.6132140469576 286.9325396825411) rotate(0 93.16666666666652 42.5)"><path d="M0 0 C63.88 -1.3, 129.84 1.11, 186.33 0 M0 0 C51.52 -1.17, 101.45 -2.59, 186.33 0 M186.33 0 C186.35 27.17, 184.86 51.61, 186.33 85 M186.33 0 C184.66 31.04, 185.08 59.71, 186.33 85 M186.33 85 C145.58 82.57, 110.02 82.41, 0 85 M186.33 85 C146.99 86.95, 105.99 86.27, 0 85 M0 85 C-2.36 66.38, 1.11 49.44, 0 0 M0 85 C0.61 66.45, 1.31 48.13, 0 0" stroke="#1e1e1e" stroke-width="2" fill="none"></path></g><g transform="translate(1405.1699411384288 304.4325396825411) rotate(0 81.60993957519531 25)"><text x="81.60993957519531" y="17.52" font-family="Virgil, Segoe UI Emoji" font-size="20px" fill="#1e1e1e" text-anchor="middle" style="white-space: pre;" direction="ltr" dominant-baseline="alphabetic">Init Game</text><text x="81.60993957519531" y="42.519999999999996" font-family="Virgil, Segoe UI Emoji" font-size="20px" fill="#1e1e1e" text-anchor="middle" style="white-space: pre;" direction="ltr" dominant-baseline="alphabetic">Command Handler</text></g><g stroke-linecap="round"><g transform="translate(590.6127934597882 506.5995800463372) rotate(0 46.66666666666663 -85.38068149520396)"><path d="M0 0 C29.2 -49.26, 56.66 -101.77, 93.33 -170.76 M0 0 C25.73 -46.12, 51.09 -94.06, 93.33 -170.76" stroke="#1e1e1e" stroke-width="2" fill="none"></path></g><g transform="translate(590.6127934597882 506.5995800463372) rotate(0 46.66666666666663 -85.38068149520396)"><path d="M91.42 -172.16 L91.54 -155.49 L82.78 -161.73 L93.82 -169.42" stroke="none" stroke-width="0" fill="#1e1e1e" fill-rule="evenodd"></path><path d="M93.33 -170.76 C93.59 -165.88, 93.17 -162.89, 92.37 -155.79 M93.33 -170.76 C93.04 -166.39, 92.69 -163.29, 92.37 -155.79 M92.37 -155.79 C89.21 -158, 83.11 -161.52, 81.25 -161.88 M92.37 -155.79 C88.24 -158.47, 83.98 -159.53, 81.25 -161.88 M81.25 -161.88 C84.77 -164.53, 85.85 -165.55, 93.33 -170.76 M81.25 -161.88 C84.41 -165.03, 88.93 -167.3, 93.33 -170.76 M93.33 -170.76 C93.33 -170.76, 93.33 -170.76, 93.33 -170.76 M93.33 -170.76 C93.33 -170.76, 93.33 -170.76, 93.33 -170.76" stroke="#1e1e1e" stroke-width="2" fill="none"></path></g></g><mask></mask><g stroke-linecap="round" transform="translate(1758.6961267931215 275.2380952380968) rotate(0 86.5 46.5)"><path d="M0 0 C41.08 -1.18, 84.73 0.25, 173 0 M0 0 C46.31 0.62, 91.05 -0.83, 173 0 M173 0 C174.06 27.8, 172.76 54.54, 173 93 M173 0 C172.41 26.23, 172.19 52.54, 173 93 M173 93 C114.86 94.44, 54.8 91.22, 0 93 M173 93 C114.73 90.92, 56.17 90.93, 0 93 M0 93 C0.17 71.75, 1.29 50.66, 0 0 M0 93 C0.22 65.11, 0.19 37.66, 0 0" stroke="#1e1e1e" stroke-width="2" fill="none"></path></g><g transform="translate(1783.8961618883363 296.7380952380968) rotate(0 61.299964904785156 25)"><text x="61.299964904785156" y="17.52" font-family="Virgil, Segoe UI Emoji" font-size="20px" fill="#1e1e1e" text-anchor="middle" style="white-space: pre;" direction="ltr" dominant-baseline="alphabetic">Current</text><text x="61.299964904785156" y="42.519999999999996" font-family="Virgil, Segoe UI Emoji" font-size="20px" fill="#1e1e1e" text-anchor="middle" style="white-space: pre;" direction="ltr" dominant-baseline="alphabetic">Game Match</text></g><g stroke-linecap="round"><g transform="translate(1589.5568173170636 454.37556883424224) rotate(0 99.01179461786933 -35.44221845288243)"><path d="M0 0 C48.29 2.78, 100.28 2.6, 198.02 0.75 M0 0 C41.16 1.53, 84.65 1.12, 198.02 0.75 M198.02 0.75 C197.7 -21.12, 197.51 -40.48, 196.37 -71.64 M198.02 0.75 C198.81 -16.1, 197.89 -34.71, 196.37 -71.64" stroke="#1e1e1e" stroke-width="2" fill="none"></path></g><g transform="translate(1589.5568173170636 454.37556883424224) rotate(0 99.01179461786933 -35.44221845288243)"><path d="M194.64 -71.99 L203.68 -58.27 L191.34 -57.61 L194.53 -71.68" stroke="none" stroke-width="0" fill="#1e1e1e" fill-rule="evenodd"></path><path d="M196.37 -71.64 C196.83 -67.68, 200.06 -64.59, 203.26 -58.31 M196.37 -71.64 C197.31 -68.17, 199.9 -65.78, 203.26 -58.31 M203.26 -58.31 C199.84 -58.43, 196.29 -57, 190.59 -57.8 M203.26 -58.31 C200.56 -57.93, 197.18 -58.55, 190.59 -57.8 M190.59 -57.8 C191.86 -60.21, 193.38 -62.7, 196.37 -71.64 M190.59 -57.8 C191.65 -61.59, 194.6 -65.11, 196.37 -71.64 M196.37 -71.64 C196.37 -71.64, 196.37 -71.64, 196.37 -71.64 M196.37 -71.64 C196.37 -71.64, 196.37 -71.64, 196.37 -71.64" stroke="#1e1e1e" stroke-width="2" fill="none"></path></g></g><mask></mask><g stroke-linecap="round"><g transform="translate(1594.8901506503967 556.3056651304927) rotate(0 116.01837435932339 -83.81756989239597)"><path d="M0 0 C50.68 2.47, 99.77 -0.07, 231.75 2.93 M0 0 C52.2 1.77, 102.32 2.76, 231.75 2.93 M231.75 2.93 C232.91 -65.19, 233.09 -129.3, 232.04 -170.57 M231.75 2.93 C231.18 -34.59, 232.26 -71.47, 232.04 -170.57" stroke="#1e1e1e" stroke-width="2" fill="none"></path></g><g transform="translate(1594.8901506503967 556.3056651304927) rotate(0 116.01837435932339 -83.81756989239597)"><path d="M233.99 -172.13 L238.77 -156.48 L224.08 -156.65 L233.4 -172.43" stroke="none" stroke-width="0" fill="#1e1e1e" fill-rule="evenodd"></path><path d="M232.04 -170.57 C234.43 -166.2, 235.33 -166.1, 238.36 -156.97 M232.04 -170.57 C234.1 -167.18, 234.29 -163.85, 238.36 -156.97 M238.36 -156.97 C234.14 -158.11, 229.33 -156.65, 225.68 -156.98 M238.36 -156.97 C235.47 -157.23, 233.41 -157.11, 225.68 -156.98 M225.68 -156.98 C226.86 -159.38, 228.19 -162.25, 232.04 -170.57 M225.68 -156.98 C227.34 -160.68, 228.97 -164.01, 232.04 -170.57 M232.04 -170.57 C232.04 -170.57, 232.04 -170.57, 232.04 -170.57 M232.04 -170.57 C232.04 -170.57, 232.04 -170.57, 232.04 -170.57" stroke="#1e1e1e" stroke-width="2" fill="none"></path></g></g><mask></mask><g stroke-linecap="round"><g transform="translate(1598.2234839837306 664.5859343258766) rotate(0 133.6756347539481 -140.5949025980031)"><path d="M0 0.01 C103.51 0.13, 203.84 -1.27, 266.17 0.66 M0 0.01 C59.63 1.64, 120.38 0.9, 266.17 0.66 M266.17 0.66 C265.9 -90.11, 265.24 -180.51, 267.35 -281.85 M266.17 0.66 C263.78 -68.14, 265.21 -137.66, 267.35 -281.85" stroke="#1e1e1e" stroke-width="2" fill="none"></path></g><g transform="translate(1598.2234839837306 664.5859343258766) rotate(0 133.6756347539481 -140.5949025980031)"><path d="M269.32 -282.98 L272.05 -269.25 L260.39 -267.13 L266.26 -283.71" stroke="none" stroke-width="0" fill="#1e1e1e" fill-rule="evenodd"></path><path d="M267.35 -281.85 C270.48 -275.4, 270.63 -271.69, 273.49 -268.16 M267.35 -281.85 C268.11 -277.98, 269.99 -275.73, 273.49 -268.16 M273.49 -268.16 C269.69 -268.01, 264.74 -267.53, 260.81 -268.35 M273.49 -268.16 C269.87 -268.05, 267.71 -268.44, 260.81 -268.35 M260.81 -268.35 C263.37 -273.12, 263.66 -276.17, 267.35 -281.85 M260.81 -268.35 C262.96 -272.61, 264.94 -276.53, 267.35 -281.85 M267.35 -281.85 C267.35 -281.85, 267.35 -281.85, 267.35 -281.85 M267.35 -281.85 C267.35 -281.85, 267.35 -281.85, 267.35 -281.85" stroke="#1e1e1e" stroke-width="2" fill="none"></path></g></g><mask></mask><g stroke-linecap="round"><g transform="translate(1592.2234839837306 780.4526324731206) rotate(0 156.52572276786327 -196.42183907028235)"><path d="M0 0 C64.19 -1.2, 126.42 -0.86, 313.05 -0.21 M0 0 C93.25 0.15, 186.31 1.17, 313.05 -0.21 M313.05 -0.21 C313.67 -128.52, 312.07 -255.95, 312.74 -392.84 M313.05 -0.21 C312.62 -109.11, 313.03 -217.6, 312.74 -392.84" stroke="#1e1e1e" stroke-width="2" fill="none"></path></g><g transform="translate(1592.2234839837306 780.4526324731206) rotate(0 156.52572276786327 -196.42183907028235)"><path d="M311.54 -392.97 L318.2 -380.59 L306.31 -381.02 L314.59 -394.5" stroke="none" stroke-width="0" fill="#1e1e1e" fill-rule="evenodd"></path><path d="M312.74 -392.84 C315.32 -391.04, 315.7 -387.9, 319.09 -379.25 M312.74 -392.84 C314.98 -389.4, 317.13 -384.23, 319.09 -379.25 M319.09 -379.25 C316.04 -379.25, 310.25 -378.16, 306.41 -379.24 M319.09 -379.25 C315.13 -379.82, 312.17 -379.89, 306.41 -379.24 M306.41 -379.24 C309.44 -384.57, 310.15 -388.18, 312.74 -392.84 M306.41 -379.24 C307.76 -382.31, 310.02 -385.84, 312.74 -392.84 M312.74 -392.84 C312.74 -392.84, 312.74 -392.84, 312.74 -392.84 M312.74 -392.84 C312.74 -392.84, 312.74 -392.84, 312.74 -392.84" stroke="#1e1e1e" stroke-width="2" fill="none"></path></g></g><mask></mask><g stroke-linecap="round" transform="translate(2103.6445394915336 86.33730158730293) rotate(0 86.5 46.5)"><path d="M0 0 C45.81 -1.23, 91.57 -0.71, 173 0 M0 0 C68.49 0.16, 136.86 1.07, 173 0 M173 0 C174.77 27.7, 174.87 51.58, 173 93 M173 0 C172.78 32.4, 173.43 64.75, 173 93 M173 93 C108.49 93.02, 45.67 92.12, 0 93 M173 93 C123.29 93.67, 73.74 93.9, 0 93 M0 93 C-0.46 72.55, -0.65 51.33, 0 0 M0 93 C0.11 55.97, 0.31 19.35, 0 0" stroke="#1e1e1e" stroke-width="2" fill="none"></path></g><g transform="translate(2120.674591676592 107.83730158730293) rotate(0 69.4699478149414 25)"><text x="69.4699478149414" y="17.52" font-family="Virgil, Segoe UI Emoji" font-size="20px" fill="#1e1e1e" text-anchor="middle" style="white-space: pre;" direction="ltr" dominant-baseline="alphabetic">Player Added </text><text x="69.4699478149414" y="42.519999999999996" font-family="Virgil, Segoe UI Emoji" font-size="20px" fill="#1e1e1e" text-anchor="middle" style="white-space: pre;" direction="ltr" dominant-baseline="alphabetic">Event</text></g><g stroke-linecap="round" transform="translate(2106.1445394915336 307.58730158730293) rotate(0 86.5 46.5)"><path d="M0 0 C42.55 -3.01, 88.5 -3.4, 173 0 M0 0 C57.05 0.19, 113.59 0.76, 173 0 M173 0 C172.4 24.92, 172.96 50.84, 173 93 M173 0 C173 34.94, 172.37 70.51, 173 93 M173 93 C106.91 93.59, 44.48 94.69, 0 93 M173 93 C112.58 91.88, 53.88 91.87, 0 93 M0 93 C1.24 66.07, -1.31 43.52, 0 0 M0 93 C0.07 60.45, 0.48 25.59, 0 0" stroke="#1e1e1e" stroke-width="2" fill="none"></path></g><g transform="translate(2120.9945913714164 329.08730158730293) rotate(0 71.64994812011719 25)"><text x="71.64994812011719" y="17.52" font-family="Virgil, Segoe UI Emoji" font-size="20px" fill="#1e1e1e" text-anchor="middle" style="white-space: pre;" direction="ltr" dominant-baseline="alphabetic">Player Info </text><text x="71.64994812011719" y="42.519999999999996" font-family="Virgil, Segoe UI Emoji" font-size="20px" fill="#1e1e1e" text-anchor="middle" style="white-space: pre;" direction="ltr" dominant-baseline="alphabetic">Changed Event</text></g><g stroke-linecap="round" transform="translate(2109.8945394915336 422.58730158730293) rotate(0 86.5 46.5)"><path d="M0 0 C63.83 -2.71, 126.73 -0.57, 173 0 M0 0 C59.79 0.1, 117.76 0.1, 173 0 M173 0 C172.82 25.17, 173.26 52.93, 173 93 M173 0 C173.16 31.45, 172.9 62.1, 173 93 M173 93 C111.32 91.11, 49.24 93.58, 0 93 M173 93 C116.6 93.04, 61.4 94.34, 0 93 M0 93 C0.81 60.07, 0.25 25.82, 0 0 M0 93 C1.4 74.93, 0.42 56.18, 0 0" stroke="#1e1e1e" stroke-width="2" fill="none"></path></g><g transform="translate(2131.2845922869437 444.08730158730293) rotate(0 65.10994720458984 25)"><text x="65.10994720458984" y="17.52" font-family="Virgil, Segoe UI Emoji" font-size="20px" fill="#1e1e1e" text-anchor="middle" style="white-space: pre;" direction="ltr" dominant-baseline="alphabetic">Player Killed </text><text x="65.10994720458984" y="42.519999999999996" font-family="Virgil, Segoe UI Emoji" font-size="20px" fill="#1e1e1e" text-anchor="middle" style="white-space: pre;" direction="ltr" dominant-baseline="alphabetic">Event</text></g><g stroke-linecap="round" transform="translate(2104.8945394915336 195.08730158730293) rotate(0 86.5 46.5)"><path d="M0 0 C42.53 1.2, 87.14 -0.65, 173 0 M0 0 C52.28 1.54, 103.34 1.46, 173 0 M173 0 C175.85 19.34, 173.29 39.71, 173 93 M173 0 C173.44 20.63, 173.27 42.17, 173 93 M173 93 C112.91 92.68, 52.38 93.81, 0 93 M173 93 C128.72 92.17, 85 92.49, 0 93 M0 93 C-0.24 61.19, -1.2 31.13, 0 0 M0 93 C-0.56 66.06, -0.11 37.47, 0 0" stroke="#1e1e1e" stroke-width="2" fill="none"></path></g><g transform="translate(2110.514603273272 216.58730158730293) rotate(0 80.87993621826172 25)"><text x="80.87993621826172" y="17.52" font-family="Virgil, Segoe UI Emoji" font-size="20px" fill="#1e1e1e" text-anchor="middle" style="white-space: pre;" direction="ltr" dominant-baseline="alphabetic">Player Removed </text><text x="80.87993621826172" y="42.519999999999996" font-family="Virgil, Segoe UI Emoji" font-size="20px" fill="#1e1e1e" text-anchor="middle" style="white-space: pre;" direction="ltr" dominant-baseline="alphabetic">Event</text></g><g stroke-linecap="round"><g transform="translate(1942.644539491534 296.4015186643246) rotate(0 71.25 -75.05486897135395)"><path d="M0 0 C41.14 -39.32, 78.68 -80.68, 142.5 -150.11 M0 0 C33.14 -34.02, 64.96 -67.85, 142.5 -150.11" stroke="#1e1e1e" stroke-width="2" fill="none"></path></g><g transform="translate(1942.644539491534 296.4015186643246) rotate(0 71.25 -75.05486897135395)"><path d="M143.27 -149.39 L139.57 -134.52 L127.18 -145.59 L141.74 -148.69" stroke="none" stroke-width="0" fill="#1e1e1e" fill-rule="evenodd"></path><path d="M142.5 -150.11 C142.25 -144.86, 139.88 -141.38, 137.79 -135.87 M142.5 -150.11 C142.13 -147.14, 140.38 -143.44, 137.79 -135.87 M137.79 -135.87 C133.65 -138.44, 130.63 -142.82, 128.56 -144.57 M137.79 -135.87 C135.09 -138.41, 131.89 -141.79, 128.56 -144.57 M128.56 -144.57 C134.07 -146.88, 140.6 -150.36, 142.5 -150.11 M128.56 -144.57 C133 -147.23, 138.53 -148.67, 142.5 -150.11 M142.5 -150.11 C142.5 -150.11, 142.5 -150.11, 142.5 -150.11 M142.5 -150.11 C142.5 -150.11, 142.5 -150.11, 142.5 -150.11" stroke="#1e1e1e" stroke-width="2" fill="none"></path></g></g><mask></mask><g stroke-linecap="round"><g transform="translate(1948.0612061582015 310.18818645687674) rotate(0 71.87499999999977 -28.592617684306475)"><path d="M0 0 C55.12 -20.37, 106.66 -41.58, 143.75 -57.19 M0 0 C47.16 -17.12, 93.4 -35.94, 143.75 -57.19" stroke="#1e1e1e" stroke-width="2" fill="none"></path></g><g transform="translate(1948.0612061582015 310.18818645687674) rotate(0 71.87499999999977 -28.592617684306475)"><path d="M145.67 -57.12 L134.98 -46.19 L129.37 -59.57 L142.32 -55.67" stroke="none" stroke-width="0" fill="#1e1e1e" fill-rule="evenodd"></path><path d="M143.75 -57.19 C141.11 -52.2, 135.94 -48.06, 133.64 -46.1 M143.75 -57.19 C140.95 -53.28, 137.49 -49.94, 133.64 -46.1 M133.64 -46.1 C131.09 -50.62, 130.85 -51.82, 128.76 -57.81 M133.64 -46.1 C131.72 -49.35, 130.3 -53.68, 128.76 -57.81 M128.76 -57.81 C132.08 -58.82, 136.39 -56.87, 143.75 -57.19 M128.76 -57.81 C134.27 -57.69, 140.89 -57.53, 143.75 -57.19 M143.75 -57.19 C143.75 -57.19, 143.75 -57.19, 143.75 -57.19 M143.75 -57.19 C143.75 -57.19, 143.75 -57.19, 143.75 -57.19" stroke="#1e1e1e" stroke-width="2" fill="none"></path></g></g><mask></mask><g stroke-linecap="round"><g transform="translate(1944.7278728248675 328.4039665178831) rotate(0 73.95833333333326 14.236718938325339)"><path d="M0 0 C39.11 7.98, 74.28 11.89, 147.92 28.47 M0 0 C30.47 6.2, 60.89 11.32, 147.92 28.47" stroke="#1e1e1e" stroke-width="2" fill="none"></path></g><g transform="translate(1944.7278728248675 328.4039665178831) rotate(0 73.95833333333326 14.236718938325339)"><path d="M147.62 28.04 L134.85 33.32 L137.54 21.21 L149.72 28.01" stroke="none" stroke-width="0" fill="#1e1e1e" fill-rule="evenodd"></path><path d="M147.92 28.47 C145.29 30.91, 139.61 29.31, 133.36 32.1 M147.92 28.47 C144.52 29.3, 141.2 29.45, 133.36 32.1 M133.36 32.1 C133.33 28.94, 134.68 24.58, 135.78 19.66 M133.36 32.1 C133.7 28.9, 134.57 25.69, 135.78 19.66 M135.78 19.66 C139.14 20.25, 140.78 24.93, 147.92 28.47 M135.78 19.66 C139.08 21.83, 143.88 25.05, 147.92 28.47 M147.92 28.47 C147.92 28.47, 147.92 28.47, 147.92 28.47 M147.92 28.47 C147.92 28.47, 147.92 28.47, 147.92 28.47" stroke="#1e1e1e" stroke-width="2" fill="none"></path></g></g><mask></mask><g stroke-linecap="round"><g transform="translate(1942.227872824867 348.462887716796) rotate(0 75.83333333333326 52.84987448932279)"><path d="M0 0 C45.92 28.56, 85.99 59.93, 151.67 105.7 M0 0 C33.73 23.29, 69.55 48.38, 151.67 105.7" stroke="#1e1e1e" stroke-width="2" fill="none"></path></g><g transform="translate(1942.227872824867 348.462887716796) rotate(0 75.83333333333326 52.84987448932279)"><path d="M150.77 104.22 L137.3 104.09 L144.83 92.47 L150.91 104.21" stroke="none" stroke-width="0" fill="#1e1e1e" fill-rule="evenodd"></path><path d="M151.67 105.7 C148.87 103.86, 142.5 104.18, 136.89 103.11 M151.67 105.7 C148.13 104.75, 145.41 104.72, 136.89 103.11 M136.89 103.11 C138.47 101.27, 140.65 97.89, 144.15 92.72 M136.89 103.11 C139.82 98.9, 142.63 95.35, 144.15 92.72 M144.15 92.72 C146.25 96.88, 147.09 100.19, 151.67 105.7 M144.15 92.72 C146.03 95.28, 146.61 97.67, 151.67 105.7 M151.67 105.7 C151.67 105.7, 151.67 105.7, 151.67 105.7 M151.67 105.7 C151.67 105.7, 151.67 105.7, 151.67 105.7" stroke="#1e1e1e" stroke-width="2" fill="none"></path></g></g><mask></mask><g stroke-linecap="round" transform="translate(2523.2278728248684 139.67063492063625) rotate(0 86.5 46.5)"><path d="M0 0 C54.93 0.81, 108.1 3.36, 173 0 M0 0 C59.75 1.83, 119.18 0.15, 173 0 M173 0 C171.99 23.57, 172.42 45.9, 173 93 M173 0 C171.63 36.02, 173.13 71.28, 173 93 M173 93 C132.99 93.97, 92.36 95.45, 0 93 M173 93 C121.56 91.98, 70.26 92.41, 0 93 M0 93 C0.34 67.8, -0.76 42.17, 0 0 M0 93 C-0.35 63.56, -0.12 35.36, 0 0" stroke="#1e1e1e" stroke-width="2" fill="none"></path></g><g transform="translate(2548.8479213478176 161.17063492063625) rotate(0 60.87995147705078 25)"><text x="60.87995147705078" y="17.52" font-family="Virgil, Segoe UI Emoji" font-size="20px" fill="#1e1e1e" text-anchor="middle" style="white-space: pre;" direction="ltr" dominant-baseline="alphabetic">Players</text><text x="60.87995147705078" y="42.519999999999996" font-family="Virgil, Segoe UI Emoji" font-size="20px" fill="#1e1e1e" text-anchor="middle" style="white-space: pre;" direction="ltr" dominant-baseline="alphabetic">Score Board</text></g><g stroke-linecap="round" transform="translate(2522.3945394915345 261.337301587303) rotate(0 86.5 46.5)"><path d="M0 0 C44.49 1.46, 87.66 1.63, 173 0 M0 0 C43.89 -1.95, 87.27 -0.92, 173 0 M173 0 C173.94 30.65, 172.53 62.79, 173 93 M173 0 C171.71 20.79, 171.4 43.21, 173 93 M173 93 C121.78 91.34, 68.89 92.82, 0 93 M173 93 C130.91 93.23, 88.25 93.77, 0 93 M0 93 C0.47 58.45, -2.25 19.08, 0 0 M0 93 C-0.38 64.29, 1.54 36.1, 0 0" stroke="#1e1e1e" stroke-width="2" fill="none"></path></g><g transform="translate(2528.064598695636 282.837301587303) rotate(0 80.82994079589844 25)"><text x="80.82994079589844" y="17.52" font-family="Virgil, Segoe UI Emoji" font-size="20px" fill="#1e1e1e" text-anchor="middle" style="white-space: pre;" direction="ltr" dominant-baseline="alphabetic">Means of Death</text><text x="80.82994079589844" y="42.519999999999996" font-family="Virgil, Segoe UI Emoji" font-size="20px" fill="#1e1e1e" text-anchor="middle" style="white-space: pre;" direction="ltr" dominant-baseline="alphabetic">Score Board</text></g><g stroke-linecap="round"><g transform="translate(2287.644539491534 132.55690304740716) rotate(0 88.33333333333348 52.86513243114345)"><path d="M0 0 C37.35 24.82, 77.3 48.91, 176.67 105.73 M0 0 C54.1 30.66, 109.44 63.62, 176.67 105.73" stroke="#1e1e1e" stroke-width="2" fill="none"></path></g><g transform="translate(2287.644539491534 132.55690304740716) rotate(0 88.33333333333348 52.86513243114345)"><path d="M177.25 106.51 L161.27 103 L167.36 91.77 L174.84 107.73" stroke="none" stroke-width="0" fill="#1e1e1e" fill-rule="evenodd"></path><path d="M176.67 105.73 C171.99 105.8, 169.78 106.2, 161.77 103.97 M176.67 105.73 C171.59 104.78, 168.03 104.71, 161.77 103.97 M161.77 103.97 C164.72 100.2, 166.95 96.23, 168.44 93.19 M161.77 103.97 C163.71 100.28, 166.32 95.19, 168.44 93.19 M168.44 93.19 C171.19 97.04, 174.87 100.35, 176.67 105.73 M168.44 93.19 C171.05 98.05, 175.3 102.93, 176.67 105.73 M176.67 105.73 C176.67 105.73, 176.67 105.73, 176.67 105.73 M176.67 105.73 C176.67 105.73, 176.67 105.73, 176.67 105.73" stroke="#1e1e1e" stroke-width="2" fill="none"></path></g></g><mask></mask><g stroke-linecap="round"><g transform="translate(2288.8945394915336 249.9465376130222) rotate(0 84.37500000000023 15.443210550067533)"><path d="M0 0 C62.13 11.49, 123.75 22.28, 168.75 30.89 M0 0 C37.48 6.11, 72.93 11.85, 168.75 30.89" stroke="#1e1e1e" stroke-width="2" fill="none"></path></g><g transform="translate(2288.8945394915336 249.9465376130222) rotate(0 84.37500000000023 15.443210550067533)"><path d="M167.6 32.71 L154.84 35.16 L156.29 21.34 L167.11 30.65" stroke="none" stroke-width="0" fill="#1e1e1e" fill-rule="evenodd"></path><path d="M168.75 30.89 C164.3 32.37, 159.51 33.4, 154.2 34.52 M168.75 30.89 C166 32.03, 161.65 32.05, 154.2 34.52 M154.2 34.52 C155.21 30.07, 155.11 26.63, 156.61 22.07 M154.2 34.52 C154.32 31.05, 155.04 27.96, 156.61 22.07 M156.61 22.07 C161.84 26.4, 166.54 27.72, 168.75 30.89 M156.61 22.07 C160.27 24.06, 163.19 26.89, 168.75 30.89 M168.75 30.89 C168.75 30.89, 168.75 30.89, 168.75 30.89 M168.75 30.89 C168.75 30.89, 168.75 30.89, 168.75 30.89" stroke="#1e1e1e" stroke-width="2" fill="none"></path></g></g><mask></mask><g stroke-linecap="round"><g transform="translate(2295.144539491534 355.71753314195746) rotate(0 81.25000000000045 -10.452622614582538)"><path d="M0 0 C60.65 -7.83, 120.93 -15.19, 162.5 -20.91 M0 0 C62.08 -6.59, 125.28 -16.12, 162.5 -20.91" stroke="#1e1e1e" stroke-width="2" fill="none"></path></g><g transform="translate(2295.144539491534 355.71753314195746) rotate(0 81.25000000000045 -10.452622614582538)"><path d="M160.9 -20.35 L148.26 -14.11 L146.26 -23.81 L162.31 -20.68" stroke="none" stroke-width="0" fill="#1e1e1e" fill-rule="evenodd"></path><path d="M162.5 -20.91 C157.72 -19.25, 152.82 -15.91, 149.88 -12.8 M162.5 -20.91 C157.01 -17.32, 152.54 -15.29, 149.88 -12.8 M149.88 -12.8 C149.27 -16.99, 147.59 -22.69, 148.18 -25.37 M149.88 -12.8 C148.8 -18.1, 148.56 -22.31, 148.18 -25.37 M148.18 -25.37 C151 -24.2, 154.64 -22.39, 162.5 -20.91 M148.18 -25.37 C152.3 -23.98, 156.04 -23.29, 162.5 -20.91 M162.5 -20.91 C162.5 -20.91, 162.5 -20.91, 162.5 -20.91 M162.5 -20.91 C162.5 -20.91, 162.5 -20.91, 162.5 -20.91" stroke="#1e1e1e" stroke-width="2" fill="none"></path></g></g><mask></mask><g stroke-linecap="round"><g transform="translate(2297.644539491534 468.93797437767444) rotate(0 81.04166666666697 -38.099560041554895)"><path d="M0 0 C60.03 -28.74, 122.37 -59.16, 162.08 -76.2 M0 0 C58.33 -25.26, 115.16 -51.59, 162.08 -76.2" stroke="#1e1e1e" stroke-width="2" fill="none"></path></g><g transform="translate(2297.644539491534 468.93797437767444) rotate(0 81.04166666666697 -38.099560041554895)"><path d="M162.42 -77.82 L152.92 -63.96 L147.26 -77.56 L160.16 -77.1" stroke="none" stroke-width="0" fill="#1e1e1e" fill-rule="evenodd"></path><path d="M162.08 -76.2 C157.32 -72.04, 154.25 -68.61, 152.8 -64.42 M162.08 -76.2 C159.14 -72.04, 155.48 -67.41, 152.8 -64.42 M152.8 -64.42 C149.33 -69.2, 147.46 -73.91, 147.09 -75.74 M152.8 -64.42 C150.23 -68.06, 149.09 -72.27, 147.09 -75.74 M147.09 -75.74 C152.49 -75.9, 155.59 -75.05, 162.08 -76.2 M147.09 -75.74 C151.07 -76.2, 153.94 -75.13, 162.08 -76.2 M162.08 -76.2 C162.08 -76.2, 162.08 -76.2, 162.08 -76.2 M162.08 -76.2 C162.08 -76.2, 162.08 -76.2, 162.08 -76.2" stroke="#1e1e1e" stroke-width="2" fill="none"></path></g></g><mask></mask><g stroke-linecap="round" transform="translate(1080.4778728248616 500.97619047619173) rotate(0 75.5 46.5)"><path d="M0 0 C56.55 -0.29, 112.16 0.06, 151 0 M0 0 C34.99 -1.05, 69.58 -0.94, 151 0 M151 0 C151.42 24.02, 150.48 46.08, 151 93 M151 0 C151.6 20.39, 151.74 42.35, 151 93 M151 93 C116.18 91.01, 86.26 90.86, 0 93 M151 93 C108.31 94.05, 65.58 92.58, 0 93 M0 93 C-0.43 69.59, -2.22 48.15, 0 0 M0 93 C1.3 72.71, 0.71 52.42, 0 0" stroke="#1e1e1e" stroke-width="2" fill="none"></path></g><g transform="translate(1112.807912802889 534.9761904761917) rotate(0 43.169960021972656 12.5)"><text x="43.169960021972656" y="17.52" font-family="Virgil, Segoe UI Emoji" font-size="20px" fill="#1e1e1e" text-anchor="middle" style="white-space: pre;" direction="ltr" dominant-baseline="alphabetic">Mediator</text></g><g mask="url(#mask-B5uXTzLB1tp9MOYdsWYyA)" stroke-linecap="round"><g transform="translate(905.9778728248612 326.7542510642046) rotate(0 80.83333333333348 92.35934465479136)"><path d="M0 0 C60.42 70.47, 124.53 142.96, 161.67 184.72 M0 0 C64.14 74.48, 129.25 148.33, 161.67 184.72" stroke="#1e1e1e" stroke-width="2" fill="none"></path></g><g transform="translate(905.9778728248612 326.7542510642046) rotate(0 80.83333333333348 92.35934465479136)"><path d="M160.98 184.73 L146.37 178.96 L155.84 172.12 L162.96 183" stroke="none" stroke-width="0" fill="#1e1e1e" fill-rule="evenodd"></path><path d="M161.67 184.72 C156 181.32, 152.47 180.34, 147.91 178.75 M161.67 184.72 C156.3 182.2, 151.32 179.9, 147.91 178.75 M147.91 178.75 C149.3 175.94, 152.23 173.94, 157.4 170.34 M147.91 178.75 C150.47 176.55, 152.4 174.52, 157.4 170.34 M157.4 170.34 C159.36 172.14, 158.4 176.84, 161.67 184.72 M157.4 170.34 C158.73 174.76, 160.57 179.91, 161.67 184.72 M161.67 184.72 C161.67 184.72, 161.67 184.72, 161.67 184.72 M161.67 184.72 C161.67 184.72, 161.67 184.72, 161.67 184.72" stroke="#1e1e1e" stroke-width="2" fill="none"></path></g></g><mask id="mask-B5uXTzLB1tp9MOYdsWYyA"><rect x="0" y="0" fill="#fff" width="1167.6445394915281" height="611.4729403737873"></rect><rect x="946.5612366757728" y="406.61359571899595" fill="#000" width="80.49993896484375" height="25" opacity="1"></rect></mask><g transform="translate(946.5612366757728 406.61359571899595) rotate(0 40.249969482421875 12.5)"><text x="40.249969482421875" y="17.52" font-family="Virgil, Segoe UI Emoji" font-size="20px" fill="#1e1e1e" text-anchor="middle" style="white-space: pre;" direction="ltr" dominant-baseline="alphabetic">command</text></g><g mask="url(#mask-BvDj3jGpx9JHzY5OSuQxC)" stroke-linecap="round"><g transform="translate(907.6445394915277 447.77881225558497) rotate(0 79.16666666666674 42.14373233981195)"><path d="M0 0 C53.7 31.29, 112.29 58.72, 158.33 84.29 M0 0 C41.13 22.76, 80.71 45.3, 158.33 84.29" stroke="#1e1e1e" stroke-width="2" fill="none"></path></g><g transform="translate(907.6445394915277 447.77881225558497) rotate(0 79.16666666666674 42.14373233981195)"><path d="M158.3 85.8 L145.01 83.08 L150.12 74.36 L158.48 84.28" stroke="none" stroke-width="0" fill="#1e1e1e" fill-rule="evenodd"></path><path d="M158.33 84.29 C152.17 84.26, 149.04 82.38, 143.34 83.73 M158.33 84.29 C154.92 83.85, 150.55 84.51, 143.34 83.73 M143.34 83.73 C145.22 79.14, 147.82 73.67, 149.13 72.44 M143.34 83.73 C145.33 79.51, 147.96 74.78, 149.13 72.44 M149.13 72.44 C153.3 77.46, 153.82 81.39, 158.33 84.29 M149.13 72.44 C152.23 75.89, 155.04 81.2, 158.33 84.29 M158.33 84.29 C158.33 84.29, 158.33 84.29, 158.33 84.29 M158.33 84.29 C158.33 84.29, 158.33 84.29, 158.33 84.29" stroke="#1e1e1e" stroke-width="2" fill="none"></path></g></g><mask id="mask-BvDj3jGpx9JHzY5OSuQxC"><rect x="0" y="0" fill="#fff" width="1165.9778728248612" height="632.0662769352089"></rect><rect x="941.02124338964" y="477.42254459539697" fill="#000" width="91.57992553710938" height="25" opacity="1"></rect></mask><g transform="translate(941.02124338964 477.42254459539697) rotate(0 45.78996276855446 12.499999999999943)"><text x="45.78996276855469" y="17.52" font-family="Virgil, Segoe UI Emoji" font-size="20px" fill="#1e1e1e" text-anchor="middle" style="white-space: pre;" direction="ltr" dominant-baseline="alphabetic">coommand</text></g><g mask="url(#mask-oOson4Tk6bwcsM9sSAwBK)" stroke-linecap="round"><g transform="translate(902.6445394915277 544.1479963610792) rotate(0 84.16666666666674 1.499483550489856)"><path d="M0 0 C39.05 0.25, 80.37 0, 168.33 3 M0 0 C64.01 2.69, 125.94 3.37, 168.33 3" stroke="#1e1e1e" stroke-width="2" fill="none"></path></g><g transform="translate(902.6445394915277 544.1479963610792) rotate(0 84.16666666666674 1.499483550489856)"><path d="M167.99 3.21 L153.03 7.86 L155.13 -2.13 L169.16 2.25" stroke="none" stroke-width="0" fill="#1e1e1e" fill-rule="evenodd"></path><path d="M168.33 3 C164.66 5.37, 162.67 6.15, 154.74 9.35 M168.33 3 C163.7 5.26, 157.51 7.31, 154.74 9.35 M154.74 9.35 C153.92 5.95, 155.32 2.34, 154.74 -3.33 M154.74 9.35 C155.3 5.55, 154.33 0.52, 154.74 -3.33 M154.74 -3.33 C160.3 -2.61, 164.13 -0.59, 168.33 3 M154.74 -3.33 C160.03 -0.79, 164.68 1.99, 168.33 3 M168.33 3 C168.33 3, 168.33 3, 168.33 3 M168.33 3 C168.33 3, 168.33 3, 168.33 3" stroke="#1e1e1e" stroke-width="2" fill="none"></path></g></g><mask id="mask-oOson4Tk6bwcsM9sSAwBK"><rect x="0" y="0" fill="#fff" width="1170.9778728248612" height="647.1469634620589"></rect><rect x="946.5612366757728" y="533.1474799115692" fill="#000" width="80.49993896484375" height="25" opacity="1"></rect></mask><g transform="translate(946.5612366757728 533.1474799115692) rotate(0 40.24996948242165 12.546456966190533)"><text x="40.249969482421875" y="17.52" font-family="Virgil, Segoe UI Emoji" font-size="20px" fill="#1e1e1e" text-anchor="middle" style="white-space: pre;" direction="ltr" dominant-baseline="alphabetic">command</text></g><g mask="url(#mask-vGf43ggaykXOIcK4VN0ec)" stroke-linecap="round"><g transform="translate(899.3112061581946 663.2414367622846) rotate(0 85.83333333333326 -50.812241166998035)"><path d="M0 0 C68.84 -42.99, 136.56 -83.17, 171.67 -101.62 M0 0 C33.93 -22.24, 69.32 -42.43, 171.67 -101.62" stroke="#1e1e1e" stroke-width="2" fill="none"></path></g><g transform="translate(899.3112061581946 663.2414367622846) rotate(0 85.83333333333326 -50.812241166998035)"><path d="M173.05 -102.57 L162.14 -88.65 L156.75 -102.06 L172.13 -101.01" stroke="none" stroke-width="0" fill="#1e1e1e" fill-rule="evenodd"></path><path d="M171.67 -101.62 C169.1 -97.79, 165.1 -92.62, 163.07 -89.33 M171.67 -101.62 C169.51 -99.22, 167.8 -96.15, 163.07 -89.33 M163.07 -89.33 C159.92 -93.55, 159.41 -96.03, 156.72 -100.3 M163.07 -89.33 C161.99 -91.48, 160.8 -94.66, 156.72 -100.3 M156.72 -100.3 C159.16 -99.45, 163.58 -100.07, 171.67 -101.62 M156.72 -100.3 C161.83 -101.28, 167.17 -100.78, 171.67 -101.62 M171.67 -101.62 C171.67 -101.62, 171.67 -101.62, 171.67 -101.62 M171.67 -101.62 C171.67 -101.62, 171.67 -101.62, 171.67 -101.62" stroke="#1e1e1e" stroke-width="2" fill="none"></path></g></g><mask id="mask-vGf43ggaykXOIcK4VN0ec"><rect x="0" y="0" fill="#fff" width="1170.9778728248612" height="864.8659190962807"></rect><rect x="944.8945700091058" y="599.9291955952866" fill="#000" width="80.49993896484375" height="25" opacity="1"></rect></mask><g transform="translate(944.8945700091058 599.9291955952865) rotate(0 40.2499694824221 12.499999999999943)"><text x="40.249969482421875" y="17.52" font-family="Virgil, Segoe UI Emoji" font-size="20px" fill="#1e1e1e" text-anchor="middle" style="white-space: pre;" direction="ltr" dominant-baseline="alphabetic">command</text></g><g mask="url(#mask-zJnVMEQKWeD-ypsATrBVM)" stroke-linecap="round"><g transform="translate(909.3112061581946 781.6031167229647) rotate(0 81.66666666666652 -100.57125857435176)"><path d="M0 0 C36.58 -46.49, 75.5 -89.41, 163.33 -201.14 M0 0 C31.71 -41.52, 65.18 -83.19, 163.33 -201.14" stroke="#1e1e1e" stroke-width="2" fill="none"></path></g><g transform="translate(909.3112061581946 781.6031167229647) rotate(0 81.66666666666652 -100.57125857435176)"><path d="M164.43 -201.66 L161.45 -186.98 L148.6 -196.15 L163.5 -202.89" stroke="none" stroke-width="0" fill="#1e1e1e" fill-rule="evenodd"></path><path d="M163.33 -201.14 C160.92 -199.01, 162.32 -193.84, 159.54 -186.63 M163.33 -201.14 C162.33 -198.39, 161.44 -195.7, 159.54 -186.63 M159.54 -186.63 C157.66 -188.83, 154.64 -188.88, 149.78 -194.72 M159.54 -186.63 C157.41 -187.83, 155.09 -189.69, 149.78 -194.72 M149.78 -194.72 C153.95 -197.05, 156.64 -197.76, 163.33 -201.14 M149.78 -194.72 C154.41 -196.64, 158.94 -198.46, 163.33 -201.14 M163.33 -201.14 C163.33 -201.14, 163.33 -201.14, 163.33 -201.14 M163.33 -201.14 C163.33 -201.14, 163.33 -201.14, 163.33 -201.14" stroke="#1e1e1e" stroke-width="2" fill="none"></path></g></g><mask id="mask-zJnVMEQKWeD-ypsATrBVM"><rect x="0" y="0" fill="#fff" width="1172.6445394915277" height="1082.7456338716684"></rect><rect x="950.7279033424393" y="668.5318581486131" fill="#000" width="80.49993896484375" height="25" opacity="1"></rect></mask><g transform="translate(950.7279033424393 668.531858148613) rotate(0 40.249969482421875 12.5)"><text x="40.249969482421875" y="17.52" font-family="Virgil, Segoe UI Emoji" font-size="20px" fill="#1e1e1e" text-anchor="middle" style="white-space: pre;" direction="ltr" dominant-baseline="alphabetic">command</text></g><g stroke-linecap="round"><g transform="translate(1244.3112061581937 550.0910551512726) rotate(0 68.33333333333348 1.4676230472571774)"><path d="M0 0 C55.28 2.18, 110.54 2, 136.67 2.94 M0 0 C51.64 -0.06, 103.35 1.53, 136.67 2.94" stroke="#1e1e1e" stroke-width="2" fill="none"></path></g><g transform="translate(1244.3112061581937 550.0910551512726) rotate(0 68.33333333333348 1.4676230472571774)"><path d="M135.23 2.52 L123.56 8.73 L124.77 -4.39 L137.27 2.1" stroke="none" stroke-width="0" fill="#1e1e1e" fill-rule="evenodd"></path><path d="M136.67 2.94 C131.71 6.85, 126.78 8.17, 122.85 8.77 M136.67 2.94 C131.28 4.42, 125.93 6.99, 122.85 8.77 M122.85 8.77 C123.48 5.26, 123.11 1.97, 123.31 -3.9 M122.85 8.77 C123.52 5.28, 123.6 0.59, 123.31 -3.9 M123.31 -3.9 C125.68 -3.47, 130.65 -2, 136.67 2.94 M123.31 -3.9 C129.29 -1.76, 133.14 1.88, 136.67 2.94 M136.67 2.94 C136.67 2.94, 136.67 2.94, 136.67 2.94 M136.67 2.94 C136.67 2.94, 136.67 2.94, 136.67 2.94" stroke="#1e1e1e" stroke-width="2" fill="none"></path></g></g><mask></mask><g stroke-linecap="round"><g transform="translate(1245.9778728248607 538.830520915266) rotate(0 68.33333333333348 -47.95225036990783)"><path d="M0 0 C45.92 -34.9, 92.13 -65.66, 136.67 -95.9 M0 0 C28.1 -17.57, 55.06 -37.99, 136.67 -95.9" stroke="#1e1e1e" stroke-width="2" fill="none"></path></g><g transform="translate(1245.9778728248607 538.830520915266) rotate(0 68.33333333333348 -47.95225036990783)"><path d="M135.65 -96.83 L127.33 -84.37 L122.34 -94.36 L135.23 -95.3" stroke="none" stroke-width="0" fill="#1e1e1e" fill-rule="evenodd"></path><path d="M136.67 -95.9 C135.26 -92.71, 133.29 -87.45, 129.28 -82.85 M136.67 -95.9 C135.66 -92.59, 133.5 -90.6, 129.28 -82.85 M129.28 -82.85 C126.84 -85.91, 125.91 -89.12, 121.92 -93.17 M129.28 -82.85 C126.69 -86.76, 123.17 -90.8, 121.92 -93.17 M121.92 -93.17 C127.02 -93.74, 131.16 -93.93, 136.67 -95.9 M121.92 -93.17 C127.01 -93.59, 133.53 -95.46, 136.67 -95.9 M136.67 -95.9 C136.67 -95.9, 136.67 -95.9, 136.67 -95.9 M136.67 -95.9 C136.67 -95.9, 136.67 -95.9, 136.67 -95.9" stroke="#1e1e1e" stroke-width="2" fill="none"></path></g></g><mask></mask><g stroke-linecap="round"><g transform="translate(1240.9778728248607 520.9614121189503) rotate(0 69.16666666666652 -87.69375034535946)"><path d="M0 0 C37.63 -48.45, 77.28 -97.86, 138.33 -175.39 M0 0 C43.87 -57.06, 89.68 -113.77, 138.33 -175.39" stroke="#1e1e1e" stroke-width="2" fill="none"></path></g><g transform="translate(1240.9778728248607 520.9614121189503) rotate(0 69.16666666666652 -87.69375034535946)"><path d="M139.47 -173.68 L133.21 -160.38 L124.65 -168.69 L138.71 -176.44" stroke="none" stroke-width="0" fill="#1e1e1e" fill-rule="evenodd"></path><path d="M138.33 -175.39 C136.65 -170.44, 136.04 -166.03, 134.85 -160.8 M138.33 -175.39 C136.75 -170.77, 136.21 -165.57, 134.85 -160.8 M134.85 -160.8 C131.58 -163.38, 128.23 -166.29, 124.92 -168.68 M134.85 -160.8 C132.62 -161.88, 129.89 -164.75, 124.92 -168.68 M124.92 -168.68 C129.16 -169.94, 131.56 -172.08, 138.33 -175.39 M124.92 -168.68 C128.85 -170.45, 132.04 -171.86, 138.33 -175.39 M138.33 -175.39 C138.33 -175.39, 138.33 -175.39, 138.33 -175.39 M138.33 -175.39 C138.33 -175.39, 138.33 -175.39, 138.33 -175.39" stroke="#1e1e1e" stroke-width="2" fill="none"></path></g></g><mask></mask><g stroke-linecap="round"><g transform="translate(1244.3112061581937 562.5884150750079) rotate(0 70 49.122462338605715)"><path d="M0 0 C35.62 24.7, 67.84 49.3, 140 98.24 M0 0 C53.99 39.48, 110.94 78.24, 140 98.24" stroke="#1e1e1e" stroke-width="2" fill="none"></path></g><g transform="translate(1244.3112061581937 562.5884150750079) rotate(0 70 49.122462338605715)"><path d="M140.17 97.69 L125.03 94.47 L132.26 87.09 L140.81 99.83" stroke="none" stroke-width="0" fill="#1e1e1e" fill-rule="evenodd"></path><path d="M140 98.24 C136.97 97.39, 131.95 97.29, 125.21 95.77 M140 98.24 C133.44 96.65, 128.53 95.44, 125.21 95.77 M125.21 95.77 C125.82 91.74, 129.94 89.15, 132.39 85.32 M125.21 95.77 C127.87 92.03, 129.99 87.91, 132.39 85.32 M132.39 85.32 C134.02 88.01, 136.75 94.64, 140 98.24 M132.39 85.32 C135.99 91.11, 137.95 95.07, 140 98.24 M140 98.24 C140 98.24, 140 98.24, 140 98.24 M140 98.24 C140 98.24, 140 98.24, 140 98.24" stroke="#1e1e1e" stroke-width="2" fill="none"></path></g></g><mask></mask><g stroke-linecap="round"><g transform="translate(1240.9778728248607 582.1437688140137) rotate(0 70 96.74408799883258)"><path d="M0 0 C31.77 43.5, 62.06 87.27, 140 193.49 M0 0 C54.51 75.15, 109.56 151.03, 140 193.49" stroke="#1e1e1e" stroke-width="2" fill="none"></path></g><g transform="translate(1240.9778728248607 582.1437688140137) rotate(0 70 96.74408799883258)"><path d="M140.27 193.33 L125.07 185.45 L136.27 180.27 L138.73 192.56" stroke="none" stroke-width="0" fill="#1e1e1e" fill-rule="evenodd"></path><path d="M140 193.49 C137.05 193.02, 133.17 191.77, 126.91 186.16 M140 193.49 C134.88 190.93, 130.25 188.52, 126.91 186.16 M126.91 186.16 C131.75 182.36, 134.5 181.21, 137.2 178.75 M126.91 186.16 C129.83 183.73, 134.02 181.91, 137.2 178.75 M137.2 178.75 C136.94 182.71, 137.33 185.9, 140 193.49 M137.2 178.75 C137.47 183.05, 138.32 186.68, 140 193.49 M140 193.49 C140 193.49, 140 193.49, 140 193.49 M140 193.49 C140 193.49, 140 193.49, 140 193.49" stroke="#1e1e1e" stroke-width="2" fill="none"></path></g></g><mask></mask><g stroke-linecap="round"><g transform="translate(1585.6445394915322 325.03677672008433) rotate(0 77.5 0.2450373686156695)"><path d="M0 0 C44.38 -0.52, 88.23 -1.42, 155 0.49 M0 0 C54.99 -1.24, 107.66 -0.74, 155 0.49" stroke="#1e1e1e" stroke-width="2" fill="none"></path></g><g transform="translate(1585.6445394915322 325.03677672008433) rotate(0 77.5 0.2450373686156695)"><path d="M156.91 0.04 L141.31 7.59 L140.1 -6.78 L153.54 0.4" stroke="none" stroke-width="0" fill="#1e1e1e" fill-rule="evenodd"></path><path d="M155 0.49 C151.06 1.58, 146.76 2.53, 141.28 6.55 M155 0.49 C150.76 2.76, 144.79 5.12, 141.28 6.55 M141.28 6.55 C142.36 4.82, 141.04 1.23, 141.54 -6.12 M141.28 6.55 C141.72 2.54, 141.4 -1.86, 141.54 -6.12 M141.54 -6.12 C145.51 -4.33, 146.11 -2.49, 155 0.49 M141.54 -6.12 C146.28 -2.9, 151.94 -0.83, 155 0.49 M155 0.49 C155 0.49, 155 0.49, 155 0.49 M155 0.49 C155 0.49, 155 0.49, 155 0.49" stroke="#1e1e1e" stroke-width="2" fill="none"></path></g></g><mask></mask><g stroke-linecap="round" transform="translate(1367.0195394915322 528.4583333333333) rotate(270 288.625 30)"><path d="M-1.98 -0.65 L577.39 -1.28 L576.55 59.17 L0.16 58.19" stroke="none" stroke-width="0" fill="#fff9db"></path><path d="M0 0 C157.2 2.76, 314.45 1.62, 577.25 0 M577.25 0 C578.63 19.06, 575.65 39.47, 577.25 60 M577.25 60 C420.23 60.7, 265.01 60.48, 0 60 M0 60 C-0.81 45.83, 2.02 32.27, 0 0" stroke="#1e1e1e" stroke-width="2.5" fill="none" stroke-dasharray="1.5 8"></path></g><g transform="translate(1555.5846105974892 545.9583333333333) rotate(270 100.05992889404297 12.5)"><text x="100.05992889404297" y="17.52" font-family="Virgil, Segoe UI Emoji" font-size="20px" fill="#1e1e1e" text-anchor="middle" style="white-space: pre;" direction="ltr" dominant-baseline="alphabetic">Game Match Service</text></g><g stroke-linecap="round" transform="translate(2524.5612061581987 375.5833333333333) rotate(0 88.16666666666652 46.5)"><path d="M0 0 C65.66 -1.48, 127.72 -2.01, 176.33 0 M0 0 C52.02 -0.17, 103.34 -0.01, 176.33 0 M176.33 0 C174.66 33.19, 175.44 69.27, 176.33 93 M176.33 0 C175.44 24.53, 176.14 50.89, 176.33 93 M176.33 93 C139.75 95.25, 99.13 95.08, 0 93 M176.33 93 C109.96 94.45, 44.11 94.46, 0 93 M0 93 C-1.75 70.55, 0.74 51.1, 0 0 M0 93 C-0.82 65.36, -1.24 39.15, 0 0" stroke="#1e1e1e" stroke-width="2" fill="none"></path></g><g transform="translate(2551.8479213478145 397.0833333333333) rotate(0 60.87995147705078 25)"><text x="60.87995147705078" y="17.52" font-family="Virgil, Segoe UI Emoji" font-size="20px" fill="#1e1e1e" text-anchor="middle" style="white-space: pre;" direction="ltr" dominant-baseline="alphabetic">Total Kills </text><text x="60.87995147705078" y="42.519999999999996" font-family="Virgil, Segoe UI Emoji" font-size="20px" fill="#1e1e1e" text-anchor="middle" style="white-space: pre;" direction="ltr" dominant-baseline="alphabetic">Score Board</text></g><g stroke-linecap="round" transform="translate(1559.5612061581983 10) rotate(0 93.16666666666652 42.5)"><path d="M0 0 C67.88 1.54, 135.41 -1.98, 186.33 0 M0 0 C71.13 0.14, 143.41 -0.28, 186.33 0 M186.33 0 C186.62 21.46, 187.35 44.35, 186.33 85 M186.33 0 C186.69 33.23, 187.29 67.28, 186.33 85 M186.33 85 C114.56 81.33, 41.72 82.27, 0 85 M186.33 85 C143.75 85.3, 100.96 84.47, 0 85 M0 85 C0.37 63.01, 0 37.37, 0 0 M0 85 C1.37 61.25, -0.23 35.66, 0 0" stroke="#1e1e1e" stroke-width="2" fill="none"></path></g><g transform="translate(1568.4879207374624 27.5) rotate(0 84.23995208740234 25)"><text x="84.23995208740234" y="17.52" font-family="Virgil, Segoe UI Emoji" font-size="20px" fill="#1e1e1e" text-anchor="middle" style="white-space: pre;" direction="ltr" dominant-baseline="alphabetic">Add Game Match</text><text x="84.23995208740234" y="42.519999999999996" font-family="Virgil, Segoe UI Emoji" font-size="20px" fill="#1e1e1e" text-anchor="middle" style="white-space: pre;" direction="ltr" dominant-baseline="alphabetic">to List Service</text></g><g stroke-linecap="round"><g transform="translate(1483.3678958728315 271.66666666666674) rotate(0 30.508730314141076 -102.9334320601143)"><path d="M1.05 0 C1.02 -49.14, -0.65 -98.13, -1.47 -147.08 M-1.47 -147.08 C20.26 -165.95, 43.32 -186.22, 62.49 -205.87" stroke="#1e1e1e" stroke-width="2.5" fill="none" stroke-dasharray="8 10"></path></g></g><mask></mask><g stroke-linecap="round" transform="translate(3242.3389839359775 251.97222222222229) rotate(0 86.5 46.5)"><path d="M0 0 C51.79 0.55, 105.49 2.07, 173 0 M0 0 C35.08 0.16, 71.76 0.05, 173 0 M173 0 C173.05 21.04, 171.92 40.4, 173 93 M173 0 C172.59 32.04, 173.15 63.59, 173 93 M173 93 C118.3 93.12, 61.42 93.72, 0 93 M173 93 C106.86 91.64, 40.22 92.07, 0 93 M0 93 C0.01 72.71, -0.6 52.73, 0 0 M0 93 C1.45 68.92, 1.19 42.5, 0 0" stroke="#1e1e1e" stroke-width="2" fill="none"></path></g><g transform="translate(3254.9290565678134 273.4722222222223) rotate(0 73.90992736816406 25)"><text x="73.90992736816406" y="17.52" font-family="Virgil, Segoe UI Emoji" font-size="20px" fill="#1e1e1e" text-anchor="middle" style="white-space: pre;" direction="ltr" dominant-baseline="alphabetic">Console Printer</text><text x="73.90992736816406" y="42.519999999999996" font-family="Virgil, Segoe UI Emoji" font-size="20px" fill="#1e1e1e" text-anchor="middle" style="white-space: pre;" direction="ltr" dominant-baseline="alphabetic">Strategy</text></g><g stroke-linecap="round" transform="translate(693.2695394915322 107.08333333333337) rotate(0 101.125 29.99999999999997)"><path d="M-0.25 0.84 L202.06 0.91 L204.22 59.84 L0.42 58.67" stroke="none" stroke-width="0" fill="#fff9db"></path><path d="M0 0 C55.54 -0.53, 110.19 -0.8, 202.25 0 M202.25 0 C200.53 17.06, 200.72 34.63, 202.25 60 M202.25 60 C144.45 61.49, 85.28 60.16, 0 60 M0 60 C-0.17 34.56, -0.4 13.96, 0 0" stroke="#1e1e1e" stroke-width="2.5" fill="none" stroke-dasharray="1.5 8"></path></g><g transform="translate(704.6946264666299 124.58333333333334) rotate(0 89.69991302490234 12.5)"><text x="89.69991302490234" y="17.52" font-family="Virgil, Segoe UI Emoji" font-size="20px" fill="#1e1e1e" text-anchor="middle" style="white-space: pre;" direction="ltr" dominant-baseline="alphabetic">Parser Strategies</text></g><g stroke-linecap="round"><g transform="translate(788.6736161325184 178.33333333333337) rotate(0 -0.19008093421530248 42.5)"><path d="M0 0 C0.18 24.46, 0.64 43.79, -0.38 85" stroke="#1e1e1e" stroke-width="2.5" fill="none" stroke-dasharray="8 10"></path></g><g transform="translate(788.6736161325184 178.33333333333337) rotate(0 -0.19008093421530248 42.5)"><path d="M-0.05 85.93 L-5.7 71.71 L5.64 72.24 L1.19 85.9" stroke="none" stroke-width="0" fill="#1e1e1e" fill-rule="evenodd"></path><path d="M-0.38 85 C-1.87 82.75, -3.07 76.67, -6.48 71.3 M-6.48 71.3 C-2.58 72.57, 2.22 71.2, 6.2 71.52 M6.2 71.52 C3.5 75.13, 4.35 77.34, -0.38 85 M-0.38 85 C-0.38 85, -0.38 85, -0.38 85" stroke="#1e1e1e" stroke-width="2.5" fill="none"></path></g></g><mask></mask><g stroke-linecap="round" transform="translate(2868.5612061581955 65.2083333333344) rotate(0 121.66666666666652 214.37499999999994)"><path d="M0 0 C91.71 -2.43, 181.66 -2.74, 243.33 0 M0 0 C96.33 1.7, 193.73 0.94, 243.33 0 M243.33 0 C243.74 99.24, 244.19 197.01, 243.33 428.75 M243.33 0 C244.41 134.49, 244.63 267.81, 243.33 428.75 M243.33 428.75 C176.59 430.63, 108.86 429.81, 0 428.75 M243.33 428.75 C176.4 430.85, 108.77 429.89, 0 428.75 M0 428.75 C-1.54 258.6, -2.17 88.54, 0 0 M0 428.75 C-0.63 291.17, -1.24 154.59, 0 0" stroke="#1e1e1e" stroke-width="2" fill="none"></path></g><g transform="translate(2954.6379146339445 70.2083333333344) rotate(0 35.58995819091797 12.5)"><text x="35.58995819091797" y="17.52" font-family="Virgil, Segoe UI Emoji" font-size="20px" fill="#1e1e1e" text-anchor="middle" style="white-space: pre;" direction="ltr" dominant-baseline="alphabetic">Queries</text></g><g stroke-linecap="round"><g transform="translate(2746.894539491529 301.80555555555645) rotate(0 51.111111111111086 5.684341886080802e-14)"><path d="M0 0 C27.55 -0.28, 56.11 1.56, 102.22 0 M0 0 C38.97 0.99, 79.37 1.45, 102.22 0" stroke="#1e1e1e" stroke-width="2" fill="none"></path></g><g transform="translate(2746.894539491529 301.80555555555645) rotate(0 51.111111111111086 5.684341886080802e-14)"><path d="M101.45 -1.58 L89.63 8.12 L89.33 -4.44 L101.42 -0.81" stroke="none" stroke-width="0" fill="#1e1e1e" fill-rule="evenodd"></path><path d="M102.22 0 C98.63 0.97, 95.8 4.18, 88.85 6.79 M102.22 0 C96.61 2.66, 92.05 5.63, 88.85 6.79 M88.85 6.79 C89.49 1.86, 88.5 -1.37, 88.42 -5.88 M88.85 6.79 C88.85 3.52, 88.68 -0.22, 88.42 -5.88 M88.42 -5.88 C92.16 -5.3, 96.65 -3.16, 102.22 0 M88.42 -5.88 C93.2 -3.52, 97.66 -2.01, 102.22 0 M102.22 0 C102.22 0, 102.22 0, 102.22 0 M102.22 0 C102.22 0, 102.22 0, 102.22 0" stroke="#1e1e1e" stroke-width="2" fill="none"></path></g></g><mask></mask><g stroke-linecap="round" transform="translate(2905.9500950470842 134.1944444444453) rotate(0 86.5 46.5)"><path d="M0 0 C45.58 0.18, 88.57 -1.87, 173 0 M0 0 C35.13 2.7, 70.73 1.99, 173 0 M173 0 C171.94 32.05, 172.67 66.92, 173 93 M173 0 C174.65 35.81, 173.05 70.46, 173 93 M173 93 C123.77 91.23, 79.25 91.02, 0 93 M173 93 C112.33 93.28, 54.13 92.48, 0 93 M0 93 C1.8 71.87, 2.05 49.66, 0 0 M0 93 C0.49 57.59, 1.38 20.93, 0 0" stroke="#1e1e1e" stroke-width="2" fill="none"></path></g><g transform="translate(2926.150130142299 155.6944444444453) rotate(0 66.29996490478516 25)"><text x="66.29996490478516" y="17.52" font-family="Virgil, Segoe UI Emoji" font-size="20px" fill="#1e1e1e" text-anchor="middle" style="white-space: pre;" direction="ltr" dominant-baseline="alphabetic">Game Match </text><text x="66.29996490478516" y="42.519999999999996" font-family="Virgil, Segoe UI Emoji" font-size="20px" fill="#1e1e1e" text-anchor="middle" style="white-space: pre;" direction="ltr" dominant-baseline="alphabetic">List Query</text></g><g stroke-linecap="round" transform="translate(2905.9500950470842 255.30555555555645) rotate(0 86.5 46.5)"><path d="M0 0 C41.44 0.93, 83.18 -0.04, 173 0 M0 0 C45.83 -0.66, 90.26 -0.32, 173 0 M173 0 C171.66 20.43, 173.84 41.39, 173 93 M173 0 C171.87 29.64, 172.39 60.32, 173 93 M173 93 C106.1 90.32, 37.66 92.05, 0 93 M173 93 C108.24 92.98, 43.66 93.05, 0 93 M0 93 C1.63 57.39, 1.55 16.89, 0 0 M0 93 C1.04 60.61, 0.58 28.89, 0 0" stroke="#1e1e1e" stroke-width="2" fill="none"></path></g><g transform="translate(2916.580145706264 276.80555555555645) rotate(0 75.86994934082031 25)"><text x="75.86994934082031" y="17.52" font-family="Virgil, Segoe UI Emoji" font-size="20px" fill="#1e1e1e" text-anchor="middle" style="white-space: pre;" direction="ltr" dominant-baseline="alphabetic">Kills By Means </text><text x="75.86994934082031" y="42.519999999999996" font-family="Virgil, Segoe UI Emoji" font-size="20px" fill="#1e1e1e" text-anchor="middle" style="white-space: pre;" direction="ltr" dominant-baseline="alphabetic">Report</text></g><g stroke-linecap="round" transform="translate(2911.50565060264 369.7500000000009) rotate(0 86.5 46.5)"><path d="M0 0 C51.28 -0.73, 102.17 -0.48, 173 0 M0 0 C48.8 1.3, 98.64 1.78, 173 0 M173 0 C171.45 32.63, 172.2 65.36, 173 93 M173 0 C174.28 27.35, 173.73 55.85, 173 93 M173 93 C104.47 93, 38.52 91.68, 0 93 M173 93 C116.08 92.91, 58.15 91.72, 0 93 M0 93 C-0.54 68.07, -0.3 44.3, 0 0 M0 93 C-0.58 72.96, 0.81 51.61, 0 0" stroke="#1e1e1e" stroke-width="2" fill="none"></path></g><g transform="translate(2922.775700651468 391.2500000000009) rotate(0 75.22994995117188 25)"><text x="75.22994995117188" y="17.52" font-family="Virgil, Segoe UI Emoji" font-size="20px" fill="#1e1e1e" text-anchor="middle" style="white-space: pre;" direction="ltr" dominant-baseline="alphabetic">Player Ranking </text><text x="75.22994995117188" y="42.519999999999996" font-family="Virgil, Segoe UI Emoji" font-size="20px" fill="#1e1e1e" text-anchor="middle" style="white-space: pre;" direction="ltr" dominant-baseline="alphabetic">Report</text></g><g stroke-linecap="round"><g transform="translate(3124.672317269307 298.0262454174687) rotate(0 51.11111111111131 5.684341886080802e-14)"><path d="M0 0 C35.98 0.37, 68.38 -2.88, 102.22 0 M0 0 C36.42 1.77, 74.19 0.31, 102.22 0" stroke="#1e1e1e" stroke-width="2" fill="none"></path></g><g transform="translate(3124.672317269307 298.0262454174687) rotate(0 51.11111111111131 5.684341886080802e-14)"><path d="M103.92 -1.36 L89.23 4.98 L89.06 -5.73 L100.42 1.99" stroke="none" stroke-width="0" fill="#1e1e1e" fill-rule="evenodd"></path><path d="M102.22 0 C98.63 3.33, 92.42 3.12, 88.74 6.57 M102.22 0 C96.92 2.96, 92.62 4.25, 88.74 6.57 M88.74 6.57 C87.74 1.83, 89.44 -0.89, 88.52 -6.11 M88.74 6.57 C88.77 2.31, 89.27 -2.67, 88.52 -6.11 M88.52 -6.11 C91.6 -4.87, 95.22 -2.84, 102.22 0 M88.52 -6.11 C91.47 -4.77, 94.22 -3.82, 102.22 0 M102.22 0 C102.22 0, 102.22 0, 102.22 0 M102.22 0 C102.22 0, 102.22 0, 102.22 0" stroke="#1e1e1e" stroke-width="2" fill="none"></path></g></g><mask></mask></svg>